# 3ds Max Wavefront OBJ Exporter v0.97b - (c)2007 guruware
# File Created: 27.07.2016 08:20:06

mtllib newcinema_floor_shell.mtl

#
# object Floor
#

v  -1000.000000 -1800.000000 0.000000
v  1000.000183 -2000.000000 0.000000
v  1000.000122 2000.000000 0.000000
v  -999.999939 2000.000000 0.000000
v  -1000.000000 -2000.000000 0.000015
v  -1400.000000 -1800.000000 -0.000015
v  -3000.000000 -2000.000000 0.000000
v  -2320.000244 -1600.000000 -0.000061
v  -2999.999756 -1499.999756 -0.000031
v  -2000.000122 200.000244 -800.000000
v  -1400.000000 200.000244 -800.000000
v  -1400.000000 800.000244 -800.000061
v  -2320.000244 200.000244 -800.000000
v  -3000.000000 200.000244 -800.000000
v  -3000.000000 800.000244 -800.000122
v  -1400.000000 -1499.999878 -0.000031
v  -1999.999756 -1600.000000 -0.000061
v  -2320.000244 -1499.999756 -0.000061
v  -2000.000000 -1499.999878 -0.000061
v  -2320.000244 100.000092 -800.000000
v  -2000.000122 100.000092 -800.000000
# 21 vertices

vn 0.000000 0.000000 1.000000
vn -0.000000 0.000000 1.000000
vn 0.000000 0.425797 0.904819
vn -0.000000 0.425797 0.904819
vn 1.000000 0.000000 0.000000
vn -1.000000 -0.000001 -0.000002
vn -0.000000 -0.000000 1.000000
# 7 vertex normals

vt 0.499998 -8.499999 0.833333
vt 10.499998 -9.500001 0.833333
vt 10.500002 10.499999 0.833333
vt 0.500002 10.500001 0.833333
vt 0.499997 -9.499999 0.833333
vt -1.500002 -8.499998 0.833333
vt -9.500002 -9.499996 0.833333
vt -6.100004 -7.499997 0.833333
vt -9.500000 -6.999995 0.833333
vt -4.500000 1.500004 0.000000
vt -1.500000 1.500003 0.000000
vt -1.500000 4.500003 0.000000
vt -6.100002 1.500004 0.000000
vt -9.500000 1.500005 0.000000
vt -9.500000 4.500005 0.000000
vt -1.500002 -6.999997 0.833333
vt -4.500000 -7.499998 0.833333
vt -6.100004 -6.999996 0.833333
vt -4.500002 -6.999997 0.833333
vt -6.100002 1.000003 0.000000
vt -4.500000 1.000003 0.000000
# 21 texture coords

g Floor
usemtl wire_198225087
s 1
f -21/-21/-7 -20/-20/-7 -19/-19/-7 -18/-18/-7 
f -21/-21/-7 -17/-17/-7 -20/-20/-7 
s off
f -17/-17/-6 -21/-21/-6 -16/-16/-6 -15/-15/-6 
f -14/-14/-7 -13/-13/-7 -15/-15/-7 
f -12/-12/-7 -11/-11/-7 -10/-10/-7 -9/-9/-7 
f -8/-8/-6 -9/-9/-6 -10/-10/-6 -7/-7/-6 
f -15/-15/-6 -16/-16/-6 -6/-6/-6 -5/-5/-6 
f -8/-8/-5 -13/-13/-5 -4/-4/-5 -9/-9/-5 
f -11/-11/-4 -12/-12/-4 -3/-3/-4 -6/-6/-4 
f -12/-12/-7 -9/-9/-7 -2/-2/-7 -1/-1/-7 
f -9/-9/-3 -4/-4/-3 -14/-14/-3 -2/-2/-3 
f -3/-3/-2 -12/-12/-2 -1/-1/-2 -5/-5/-2 
f -14/-14/-7 -15/-15/-7 -5/-5/-7 
f -3/-3/-1 -5/-5/-1 -6/-6/-1 
f -4/-4/-7 -13/-13/-7 -14/-14/-7 
# 10 polygons - 5 triangles

