# 3ds Max Wavefront OBJ Exporter v0.97b - (c)2007 guruware
# File Created: 27.07.2016 08:17:06

#
# object Ceiling
#

v  -1400.000000 -1800.000000 403.199951
v  -1000.000000 -1800.000000 403.199951
v  -1000.000000 -2000.000000 403.199982
v  -1400.000000 -2000.000000 403.199951
v  -3000.000000 200.000366 479.999786
v  -1400.000000 200.000244 479.999817
v  -1400.000000 -2000.000000 479.999847
v  -3000.000000 -2000.000000 479.999878
v  1000.000244 -2000.000000 1280.000000
v  -1000.000000 -2000.000000 1280.000000
v  -999.999878 2000.000000 1280.000000
v  1000.000244 2000.000000 1280.000000
# 12 vertices

vn 0.000000 -0.000000 -1.000000
vn -0.000000 -0.000000 -1.000000
vn 0.000000 0.000000 -1.000000
# 3 vertex normals

vt -1.500003 -8.499998 0.000000
vt 0.499997 -8.499999 0.000000
vt 0.499997 -9.499999 0.000000
vt -1.500003 -9.499998 0.000000
vt -9.500001 1.500005 0.087591
vt -1.500000 1.500003 0.087591
vt -1.500003 -9.499998 0.087591
vt -9.500003 -9.499996 0.087591
vt 10.499998 -9.500001 1.000000
vt 0.499997 -9.499999 1.000000
vt 0.500002 10.500001 1.000000
vt 10.500002 10.499999 1.000000
# 12 texture coords

g Ceiling
s off
f -12/-12/-3 -11/-11/-3 -10/-10/-3 -9/-9/-3 
s 1
f -8/-8/-3 -7/-7/-3 -6/-6/-2 -5/-5/-2 
f -4/-4/-1 -3/-3/-1 -2/-2/-1 -1/-1/-1 
# 3 polygons

