# 3ds Max Wavefront OBJ Exporter v0.97b - (c)2007 guruware
# File Created: 27.07.2016 08:11:23

#
# object Stairs
#

v  -2000.000000 -703.966980 -376.470642
v  -2320.000244 -703.967102 -376.470581
v  -2320.000244 -799.999878 -376.470581
v  -1999.999878 -799.999817 -376.470642
v  -2000.000122 100.000092 -800.000000
v  -2320.000244 100.000092 -800.000000
v  -2320.000244 100.000092 -756.908386
v  -2000.000122 100.000122 -756.908386
v  -2000.000122 96.032883 -752.941162
v  -2320.000244 96.032852 -752.941162
v  -2320.000244 0.000074 -752.941162
v  -2000.000122 0.000227 -752.941284
v  -2320.000244 0.000088 -709.849548
v  -2000.000122 0.000241 -709.849609
v  -2000.000122 -3.966999 -705.882385
v  -2320.000244 -3.967152 -705.882324
v  -2320.000244 -99.999908 -705.882324
v  -2000.000122 -99.999893 -705.882385
v  -2320.000244 -99.999908 -662.790710
v  -2000.000122 -99.999771 -662.790833
v  -2000.000122 -103.966995 -658.823608
v  -2320.000244 -103.967148 -658.823486
v  -2320.000244 -199.999908 -658.823547
v  -2000.000000 -199.999771 -658.823608
v  -2320.000244 -199.999893 -615.731934
v  -2000.000000 -199.999863 -615.731934
v  -2000.000000 -203.967117 -611.764709
v  -2320.000244 -203.967133 -611.764709
v  -2320.000244 -299.999878 -611.764709
v  -2000.000000 -299.999756 -611.764771
v  -2320.000244 -299.999878 -568.673096
v  -2000.000000 -299.999756 -568.673157
v  -2000.000000 -303.967010 -564.705933
v  -2320.000244 -303.967133 -564.705872
v  -2320.000244 -399.999878 -564.705872
v  -2000.000000 -399.999878 -564.705933
v  -2320.000244 -399.999878 -521.614319
v  -2000.000000 -399.999664 -521.614380
v  -2000.000000 -403.966888 -517.647156
v  -2320.000244 -403.967133 -517.647095
v  -2320.000244 -499.999878 -517.647095
v  -2000.000000 -499.999756 -517.647095
v  -2320.000244 -499.999878 -474.555481
v  -2000.000000 -499.999878 -474.555511
v  -2000.000000 -503.967133 -470.588257
v  -2320.000244 -503.967133 -470.588226
v  -2320.000244 -599.999878 -470.588226
v  -2000.000000 -599.999695 -470.588348
v  -2320.000244 -599.999878 -427.496643
v  -2000.000000 -599.999756 -427.496735
v  -2000.000000 -603.966980 -423.529480
v  -2320.000244 -603.967102 -423.529388
v  -2320.000244 -699.999817 -423.529419
v  -2000.000000 -699.999756 -423.529480
v  -2320.000244 -699.999878 -380.437836
v  -2000.000000 -699.999756 -380.437897
v  -2320.000244 -1600.000000 -0.000061
v  -1999.999756 -1600.000000 -0.000061
v  -1999.999756 -1503.967041 -0.000061
v  -2320.000244 -1503.967041 -0.000061
v  -2320.000244 -1499.999756 -3.967302
v  -1999.999756 -1499.999756 -3.967302
v  -1999.999756 -1499.999756 -47.058891
v  -2320.000244 -1499.999878 -47.058777
v  -1999.999756 -1403.967041 -47.058884
v  -2320.000244 -1403.967163 -47.058834
v  -2320.000244 -1399.999878 -51.026077
v  -1999.999756 -1399.999756 -51.026123
v  -1999.999756 -1399.999756 -94.117714
v  -2320.000244 -1399.999756 -94.117676
v  -1999.999756 -1303.967041 -94.117714
v  -2320.000244 -1303.967163 -94.117615
v  -2320.000244 -1299.999878 -98.084854
v  -1999.999756 -1299.999756 -98.084953
v  -1999.999878 -1299.999756 -141.176529
v  -2320.000244 -1299.999878 -141.176453
v  -1999.999878 -1203.967041 -141.176529
v  -2320.000244 -1203.967041 -141.176514
v  -2320.000244 -1199.999756 -145.143753
v  -1999.999878 -1199.999756 -145.143768
v  -1999.999878 -1199.999756 -188.235367
v  -2320.000244 -1199.999878 -188.235291
v  -1999.999878 -1103.967041 -188.235352
v  -2320.000244 -1103.967163 -188.235291
v  -2320.000244 -1099.999878 -192.202530
v  -1999.999878 -1099.999756 -192.202591
v  -1999.999878 -1099.999756 -235.294174
v  -2320.000244 -1099.999756 -235.294128
v  -1999.999878 -1003.966980 -235.294159
v  -2320.000244 -1003.967224 -235.294067
v  -2320.000244 -1000.000000 -239.261307
v  -1999.999878 -999.999756 -239.261398
v  -1999.999878 -999.999756 -282.352997
v  -2320.000244 -999.999878 -282.352966
v  -1999.999878 -903.966980 -282.352997
v  -2320.000244 -903.966980 -282.352966
v  -2320.000244 -899.999756 -286.320221
v  -1999.999878 -899.999756 -286.320251
v  -1999.999878 -899.999756 -329.411835
v  -2320.000244 -899.999939 -329.411713
v  -1999.999878 -803.966980 -329.411835
v  -2320.000244 -803.967102 -329.411743
v  -2320.000244 -799.999878 -333.378998
v  -1999.999878 -799.999756 -333.379089
# 104 vertices

vn 0.000000 0.000000 1.000000
vn -0.000000 1.000000 -0.000001
vn 0.000000 1.000000 0.000000
vn -0.000000 1.000000 -0.000000
vn 0.000000 -0.000001 1.000000
vn 0.000000 -0.000000 1.000000
vn -0.000000 1.000000 -0.000003
vn -0.000000 1.000000 0.000000
vn -0.000000 1.000000 0.000002
vn -0.000001 1.000000 -0.000005
vn 0.000000 0.000001 1.000000
vn -0.000000 0.000001 1.000000
vn -0.000000 1.000000 0.000003
vn 0.000000 1.000000 0.000003
vn -0.000000 1.000000 0.000001
vn -0.000001 1.000000 0.000000
vn -0.000001 1.000000 -0.000004
vn -0.000000 0.707105 0.707108
vn -0.000000 0.707107 0.707107
vn -0.000000 0.707104 0.707110
vn -0.000000 0.707104 0.707109
vn 0.000000 0.707107 0.707107
vn -0.000000 0.707110 0.707104
vn -0.000000 0.707109 0.707104
vn 0.000000 0.707103 0.707111
vn -0.000000 0.707103 0.707111
vn -0.000000 0.707108 0.707105
vn 0.000000 0.707110 0.707104
# 28 vertex normals

vt 0.000000 0.500000 0.000000
# 1 texture coords

g Stairs
s 1
f -104/-1/-28 -103/-1/-28 -102/-1/-28 -101/-1/-28 
f -100/-1/-27 -99/-1/-26 -98/-1/-25 -97/-1/-27 
f -96/-1/-24 -95/-1/-28 -94/-1/-23 -93/-1/-24 
s 2
f -93/-1/-25 -94/-1/-25 -92/-1/-25 -91/-1/-25 
s 1
f -90/-1/-28 -89/-1/-28 -88/-1/-28 -87/-1/-28 
s 2
f -87/-1/-22 -88/-1/-21 -86/-1/-25 -85/-1/-22 
s 1
f -84/-1/-23 -83/-1/-24 -82/-1/-24 -81/-1/-28 
s 2
f -81/-1/-20 -82/-1/-25 -80/-1/-25 -79/-1/-20 
s 1
f -78/-1/-24 -77/-1/-28 -76/-1/-23 -75/-1/-24 
s 2
f -75/-1/-21 -76/-1/-21 -74/-1/-21 -73/-1/-21 
s 1
f -72/-1/-28 -71/-1/-28 -70/-1/-28 -69/-1/-28 
s 2
f -69/-1/-19 -70/-1/-26 -68/-1/-25 -67/-1/-19 
s 1
f -66/-1/-18 -65/-1/-28 -64/-1/-28 -63/-1/-17 
s 2
f -63/-1/-16 -64/-1/-21 -62/-1/-21 -61/-1/-15 
s 1
f -60/-1/-24 -59/-1/-28 -58/-1/-23 -57/-1/-24 
s 2
f -57/-1/-14 -58/-1/-13 -56/-1/-13 -55/-1/-14 
s 1
f -54/-1/-23 -53/-1/-23 -52/-1/-23 -51/-1/-28 
s 2
f -51/-1/-21 -52/-1/-14 -50/-1/-14 -49/-1/-21 
s 1
f -48/-1/-28 -47/-1/-28 -46/-1/-28 -45/-1/-28 
f -44/-1/-22 -43/-1/-26 -42/-1/-25 -41/-1/-22 
s 2
f -41/-1/-28 -42/-1/-23 -40/-1/-28 -39/-1/-18 
s 1
f -38/-1/-16 -37/-1/-21 -36/-1/-21 -35/-1/-15 
s 2
f -35/-1/-24 -36/-1/-28 -34/-1/-23 -33/-1/-24 
s 1
f -32/-1/-21 -31/-1/-21 -30/-1/-21 -29/-1/-21 
s 2
f -29/-1/-18 -30/-1/-28 -28/-1/-28 -27/-1/-18 
s 1
f -26/-1/-22 -25/-1/-26 -24/-1/-25 -23/-1/-22 
s 2
f -23/-1/-23 -24/-1/-23 -22/-1/-23 -21/-1/-28 
s 1
f -20/-1/-16 -19/-1/-21 -18/-1/-21 -17/-1/-15 
s 2
f -17/-1/-24 -18/-1/-23 -16/-1/-23 -15/-1/-24 
s 1
f -14/-1/-16 -13/-1/-13 -12/-1/-13 -11/-1/-16 
s 2
f -11/-1/-28 -12/-1/-28 -10/-1/-28 -9/-1/-28 
s 1
f -8/-1/-12 -7/-1/-26 -6/-1/-25 -5/-1/-12 
s 2
f -5/-1/-28 -6/-1/-28 -4/-1/-28 -3/-1/-28 
f -2/-1/-25 -1/-1/-27 -101/-1/-27 -102/-1/-21 
f -96/-1/-11 -97/-1/-11 -98/-1/-11 -95/-1/-11 
s 4
f -90/-1/-11 -91/-1/-11 -92/-1/-11 -89/-1/-11 
f -84/-1/-10 -85/-1/-10 -86/-1/-11 -83/-1/-11 
f -78/-1/-9 -79/-1/-8 -80/-1/-11 -77/-1/-11 
f -72/-1/-9 -73/-1/-8 -74/-1/-9 -71/-1/-8 
f -66/-1/-10 -67/-1/-10 -68/-1/-8 -65/-1/-9 
f -60/-1/-7 -61/-1/-7 -62/-1/-7 -59/-1/-7 
f -54/-1/-6 -55/-1/-5 -56/-1/-6 -53/-1/-5 
f -104/-1/-6 -49/-1/-5 -50/-1/-6 -103/-1/-5 
s 2
f -44/-1/-4 -45/-1/-4 -46/-1/-4 -43/-1/-4 
s 4
f -38/-1/-3 -39/-1/-3 -40/-1/-3 -37/-1/-3 
f -32/-1/-3 -33/-1/-3 -34/-1/-3 -31/-1/-3 
f -26/-1/-4 -27/-1/-4 -28/-1/-4 -25/-1/-4 
f -20/-1/-3 -21/-1/-3 -22/-1/-3 -19/-1/-3 
f -14/-1/-2 -15/-1/-2 -16/-1/-2 -13/-1/-2 
f -8/-1/-1 -9/-1/-1 -10/-1/-1 -7/-1/-1 
s 1
f -2/-1/-6 -3/-1/-6 -4/-1/-6 -1/-1/-6 
# 51 polygons

